<?xml version="1.0" encoding="UTF-8" standalone="no"?>
<!-- Created with Inkscape (http://www.inkscape.org/) -->

<svg
   version="1.1"
   id="svg1"
   width="1000"
   height="1000"
   viewBox="0 0 1000 999.99999"
   xmlns="http://www.w3.org/2000/svg"
   xmlns:svg="http://www.w3.org/2000/svg">
  <defs
     id="defs1">
    <clipPath
       clipPathUnits="userSpaceOnUse"
       id="clipPath2">
      <path
         d="M 0,323.768 H 571.992 V 0 H 0 Z"
         transform="translate(-294.50901,-148.4255)"
         id="path2" />
    </clipPath>
    <clipPath
       clipPathUnits="userSpaceOnUse"
       id="clipPath4">
      <path
         d="M 0,323.768 H 571.992 V 0 H 0 Z"
         id="path4" />
    </clipPath>
  </defs>
  <g
     id="layer-MC0">
    <path
       id="path1"
       d="M 0,0 C 0,0 -1.485,14.217 -17.294,17.825 -33.103,21.432 -44.562,9.549 -44.562,0 Z m 18.673,-7.215 -63.129,-0.212 c 0,0 -0.954,-19.734 20.478,-20.371 21.538,-0.637 22.917,13.687 22.917,13.687 h 19.522 c 0,0 -0.636,-6.578 -5.729,-13.687 -6.897,-9.549 -22.175,-20.583 -42.228,-18.037 -52.625,6.791 -45.622,80.742 3.926,85.622 14.748,1.379 48.487,-9.443 44.243,-47.002 m 28.329,46.79 18.037,-56.445 19.628,56.445 h 23.448 L 63.023,-77.983 H 42.015 L 53.262,-40.636 25.994,39.575 Z M 177.079,0 c 0,0 -1.379,14.217 -17.188,17.825 C 144.083,21.432 132.518,9.549 132.518,0 Z m 18.78,-7.215 -63.235,-0.212 c 0,0 -0.955,-19.734 20.583,-20.371 21.432,-0.637 22.918,13.687 22.918,13.687 h 19.522 c 0,0 -0.743,-6.578 -5.836,-13.687 -6.79,-9.549 -22.068,-20.583 -42.121,-18.037 -52.625,6.791 -45.623,80.742 3.926,85.622 14.747,1.379 48.381,-9.443 44.243,-47.002 m -408.694,-38.938 0.212,94.11 h 27.692 V -16.87 l 63.235,-0.106 c 0,0 25.57,10.398 25.57,36.923 0,26.631 -21.432,35.437 -30.132,35.437 -8.594,0 -51.882,-0.106 -51.882,-0.106 v 29.813 l 60.9,0.107 c 0,0 34.164,-4.457 43.607,-46.154 9.337,-41.696 -20.053,-85.197 -49.548,-85.197 z"
       style="fill:#015cbb;fill-opacity:1;fill-rule:evenodd;stroke:none"
       transform="matrix(2.1974501,0,0,-2.1974501,510.59389,499.02702)"
       clip-path="url(#clipPath2)" />
    <path
       id="path3"
       d="m 81.886,204.021 h 27.692 V 233.41 H 81.886 Z"
       style="fill:#e1261c;fill-opacity:1;fill-rule:evenodd;stroke:none"
       transform="matrix(2.1974501,0,0,-2.1974501,-136.57496,825.18466)"
       clip-path="url(#clipPath4)" />
  </g>
</svg>
