<?xml version="1.0" encoding="UTF-8" standalone="no"?>
<!-- Created with Inkscape (http://www.inkscape.org/) -->

<svg
   width="170.05136"
   height="67.999985"
   viewBox="0 0 44.992754 17.991663"
   version="1.1"
   id="svg1"
   xml:space="preserve"
   xmlns="http://www.w3.org/2000/svg"
   xmlns:svg="http://www.w3.org/2000/svg"><defs
     id="defs1" /><g
     id="layer1"
     transform="translate(-45.243748,-58.737499)"><path
       style="fill:#000000"
       d="m 73.724175,75.361778 c 0.223339,-0.752064 0.508621,-1.637118 0.633962,-1.966788 l 0.227891,-0.599399 -1.441973,-4.308051 c -0.793085,-2.369427 -1.441973,-4.401404 -1.441973,-4.515504 0,-0.351297 2.124454,-0.23445 2.241335,0.123276 0.05943,0.181901 0.486082,1.557297 0.948108,3.056436 0.462025,1.499138 0.889563,2.67619 0.950083,2.61567 0.06052,-0.06052 0.567034,-1.40615 1.125587,-2.99029 l 1.015551,-2.880254 1.259703,-0.08205 1.259702,-0.08205 -0.119218,0.346632 c -0.06557,0.190647 -1.17393,3.114834 -2.463021,6.498193 l -2.343802,6.151563 h -1.129003 -1.129003 z m -28.480427,-7.23157 v -5.159375 h 1.5875 1.5875 v 3.571875 3.571875 h 3.480755 3.480755 l 0.913669,-0.69689 c 1.744953,-1.33094 2.276899,-3.373617 1.388362,-5.331317 l -0.51442,-1.133414 -1.133415,-0.514421 -1.133414,-0.51442 -2.844271,-0.0058 -2.844271,-0.0058 v -1.5875 -1.5875 l 3.373437,0.0058 3.373438,0.0058 1.073099,0.487416 c 2.336266,1.061164 3.711373,3.654586 3.631687,6.849281 l -0.0414,1.659778 -0.635757,1.382931 c -0.850489,1.850027 -1.820486,2.947677 -3.191297,3.611276 l -1.135694,0.54978 h -5.208132 -5.208131 z m 19.111029,4.828038 C 63.87902,72.805723 63.084033,72.231836 62.58814,71.682942 l -0.901623,-0.997989 -0.178659,-1.191387 -0.17866,-1.191387 0.323583,-0.980465 c 0.17797,-0.539255 0.738761,-1.440017 1.246201,-2.001693 l 0.922619,-1.021229 1.071953,-0.288647 c 2.913242,-0.784455 5.750194,1.251756 5.750194,4.127179 0,0.535671 -0.110134,0.882088 -0.25247,0.79412 -0.138858,-0.08582 -1.686671,-0.07498 -3.439583,0.02408 l -3.187113,0.180119 v 0.369203 c 0,0.203062 0.292244,0.661448 0.649431,1.018635 l 0.649432,0.649432 h 1.215285 1.215285 l 0.613019,-0.661458 0.613019,-0.661459 h 0.961848 c 1.08742,0 1.100955,0.02303 0.590761,1.005327 -0.970274,1.8681 -3.664264,2.82541 -5.917885,2.10292 z m 4.172305,-5.20571 c 0,-0.28048 -0.313713,-0.75673 -0.69714,-1.058333 l -0.69714,-0.54837 H 66.14623 65.159657 l -0.697538,0.697538 c -0.383645,0.383645 -0.697537,0.859895 -0.697537,1.058333 v 0.360795 h 2.38125 2.38125 z m 15.262173,5.153715 c -4.401179,-1.569657 -3.438278,-8.276753 1.295589,-9.024437 l 1.079638,-0.170522 1.315069,0.565728 1.31507,0.565727 0.714147,1.101379 c 0.392781,0.605759 0.714148,1.476618 0.714148,1.935244 v 0.833864 l -2.182813,0.169922 c -1.200547,0.09346 -2.804154,0.170635 -3.563571,0.171507 l -1.380759,0.0016 0.163414,0.463021 c 0.08988,0.254662 0.404552,0.730912 0.699275,1.058333 l 0.535861,0.595313 h 1.124205 1.124204 l 0.786098,-0.661458 0.786099,-0.661459 h 0.960788 0.960788 l -0.394167,0.762234 c -1.104533,2.135932 -3.718572,3.126609 -6.053083,2.294018 z m 4.308579,-4.974481 c -0.02264,-0.889702 -1.347655,-1.785937 -2.640377,-1.785937 H 84.62596 l -0.790822,0.790822 c -1.109817,1.109817 -0.799347,1.325844 1.905476,1.325844 h 2.365635 z M 45.243748,60.324999 v -1.5875 h 1.5875 1.5875 v 1.5875 1.5875 h -1.5875 -1.5875 z"
       id="path1" /></g></svg>
