<svg xmlns="http://www.w3.org/2000/svg" xml:space="preserve" id="Layer_1" x="0" y="0" viewBox="0 0 960 960"><style>.st0{fill-rule:evenodd;clip-rule:evenodd}</style><path d="m0 596.8.6-220.9h65v152.2l148.4.3s60.1-24.4 60.1-86.7c0-62.6-50.3-83.1-70.7-83.1-20.2 0-121.8.3-121.8.3v-70l142.9-.3s80.2 10.5 102.3 108.3c22 97.9-47.1 200-116.3 200H0zm959.2-91.4-148.5.6s-2.2 46.3 48.3 47.8c50.3 1.5 53.7-32.2 53.7-32.2h45.8s-1.8 15.5-13.7 32.2c-15.9 22.4-51.8 48.3-98.9 42.4-123.6-15.9-107-189.5 9.3-200.9 34.8-3.4 113.8 21.9 104 110.1m-44.1-17s-3.2-33.4-40.3-41.8-64.2 19.5-64.2 41.8zm-305.3-92.8L652.2 528l46.1-132.4h55.1L647.6 671.5h-49.3l26.4-87.7-64.1-188.2zm-66.4 109.8-148.2.6s-2.2 46.3 48.1 47.8c50.5 1.5 53.9-32.2 53.9-32.2H543s-1.5 15.5-13.4 32.2c-16.2 22.4-52.1 48.3-99.1 42.4-123.6-15.9-107.2-189.5 9.3-200.9 34.3-3.4 113.5 21.9 103.6 110.1m-43.9-17s-3.5-33.4-40.6-41.8-63.9 19.5-63.9 41.8z" class="st0"/><path d="M.4 289h65v69H.4z" class="st0"/></svg>